<?xml version="1.0" encoding="UTF-8" standalone="no"?>
<!DOCTYPE svg PUBLIC "-//W3C//DTD SVG 1.1//EN"
 "http://www.w3.org/Graphics/SVG/1.1/DTD/svg11.dtd">
<!-- Generated by graphviz version 14.1.2 (0)
 -->
<!-- Title: ntsc.js_simple Pages: 1 -->
<svg width="893pt" height="105pt"
 viewBox="0.00 0.00 893.00 105.00" xmlns="http://www.w3.org/2000/svg" xmlns:xlink="http://www.w3.org/1999/xlink">
<g id="graph0" class="graph" transform="scale(1 1) rotate(0) translate(4 100.97)">
<title>ntsc.js_simple</title>
<!-- src -->
<g id="node1" class="node">
<title>src</title>
<path fill="#e7eefc" stroke="#333333" stroke-opacity="0.133333" d="M134.43,-90.59C134.43,-90.59 12,-90.59 12,-90.59 6,-90.59 0,-84.59 0,-78.59 0,-78.59 0,-56.93 0,-56.93 0,-50.93 6,-44.93 12,-44.93 12,-44.93 134.43,-44.93 134.43,-44.93 140.43,-44.93 146.43,-50.93 146.43,-56.93 146.43,-56.93 146.43,-78.59 146.43,-78.59 146.43,-84.59 140.43,-90.59 134.43,-90.59"/>
<text xml:space="preserve" text-anchor="middle" x="73.22" y="-69.11" font-family="Helvetica,Arial,sans-serif" font-size="12.00" fill="#111111">RGB source</text>
<text xml:space="preserve" text-anchor="middle" x="73.22" y="-56.36" font-family="Helvetica,Arial,sans-serif" font-size="12.00" fill="#111111">bars · video · webcam</text>
</g>
<!-- encode -->
<g id="node2" class="node">
<title>encode</title>
<path fill="#cfe3cb" stroke="#333333" stroke-opacity="0.133333" d="M311.86,-96.97C311.86,-96.97 195.43,-96.97 195.43,-96.97 189.43,-96.97 183.43,-90.97 183.43,-84.97 183.43,-84.97 183.43,-50.56 183.43,-50.56 183.43,-44.56 189.43,-38.56 195.43,-38.56 195.43,-38.56 311.86,-38.56 311.86,-38.56 317.86,-38.56 323.86,-44.56 323.86,-50.56 323.86,-50.56 323.86,-84.97 323.86,-84.97 323.86,-90.97 317.86,-96.97 311.86,-96.97"/>
<text xml:space="preserve" text-anchor="middle" x="253.65" y="-75.49" font-family="Helvetica,Arial,sans-serif" font-size="12.00" fill="#111111">Encode</text>
<text xml:space="preserve" text-anchor="middle" x="253.65" y="-62.74" font-family="Helvetica,Arial,sans-serif" font-size="12.00" fill="#111111">build NTSC</text>
<text xml:space="preserve" text-anchor="middle" x="253.65" y="-49.99" font-family="Helvetica,Arial,sans-serif" font-size="12.00" fill="#111111">composite waveform</text>
</g>
<!-- src&#45;&gt;encode -->
<g id="edge1" class="edge">
<title>src&#45;&gt;encode</title>
<path fill="none" stroke="#555555" d="M146.79,-67.76C155.01,-67.76 163.44,-67.76 171.76,-67.76"/>
<polygon fill="#555555" stroke="#555555" points="171.51,-71.26 181.51,-67.76 171.51,-64.26 171.51,-71.26"/>
</g>
<!-- damage -->
<g id="node3" class="node">
<title>damage</title>
<path fill="#e9c9c9" stroke="#333333" stroke-opacity="0.133333" d="M571.54,-96.97C571.54,-96.97 465.61,-96.97 465.61,-96.97 459.61,-96.97 453.61,-90.97 453.61,-84.97 453.61,-84.97 453.61,-50.56 453.61,-50.56 453.61,-44.56 459.61,-38.56 465.61,-38.56 465.61,-38.56 571.54,-38.56 571.54,-38.56 577.54,-38.56 583.54,-44.56 583.54,-50.56 583.54,-50.56 583.54,-84.97 583.54,-84.97 583.54,-90.97 577.54,-96.97 571.54,-96.97"/>
<text xml:space="preserve" text-anchor="middle" x="518.58" y="-75.49" font-family="Helvetica,Arial,sans-serif" font-size="12.00" fill="#111111">Channel</text>
<text xml:space="preserve" text-anchor="middle" x="518.58" y="-62.74" font-family="Helvetica,Arial,sans-serif" font-size="12.00" fill="#111111">damage the signal</text>
<text xml:space="preserve" text-anchor="middle" x="518.58" y="-49.99" font-family="Helvetica,Arial,sans-serif" font-size="12.00" fill="#111111">(tape · RF · VHS)</text>
</g>
<!-- encode&#45;&gt;damage -->
<g id="edge2" class="edge">
<title>encode&#45;&gt;damage</title>
<path fill="none" stroke="#555555" d="M324.07,-67.76C360.33,-67.76 404.77,-67.76 441.91,-67.76"/>
<polygon fill="#555555" stroke="#555555" points="441.67,-71.26 451.67,-67.76 441.67,-64.26 441.67,-71.26"/>
</g>
<!-- damage&#45;&gt;encode -->
<g id="edge5" class="edge">
<title>damage&#45;&gt;encode</title>
<path fill="none" stroke="#c8961a" stroke-dasharray="5,2" d="M453.56,-46.28C447.54,-44.85 441.5,-43.64 435.61,-42.76 394.4,-36.62 383.12,-36.97 341.86,-42.76 339.7,-43.07 337.51,-43.41 335.31,-43.79"/>
<polygon fill="#c8961a" stroke="#c8961a" points="334.88,-40.31 325.74,-45.67 336.22,-47.18 334.88,-40.31"/>
<text xml:space="preserve" text-anchor="middle" x="388.74" y="-54.26" font-family="Helvetica,Arial,sans-serif" font-size="10.00" fill="#c8961a"> &#160;composite feedback</text>
<text xml:space="preserve" text-anchor="middle" x="388.74" y="-43.76" font-family="Helvetica,Arial,sans-serif" font-size="10.00" fill="#c8961a"> &#160;(hardware mixer)</text>
</g>
<!-- decode -->
<g id="node4" class="node">
<title>decode</title>
<path fill="#d3cbeb" stroke="#333333" stroke-opacity="0.133333" d="M726.47,-96.97C726.47,-96.97 632.54,-96.97 632.54,-96.97 626.54,-96.97 620.54,-90.97 620.54,-84.97 620.54,-84.97 620.54,-50.56 620.54,-50.56 620.54,-44.56 626.54,-38.56 632.54,-38.56 632.54,-38.56 726.47,-38.56 726.47,-38.56 732.47,-38.56 738.47,-44.56 738.47,-50.56 738.47,-50.56 738.47,-84.97 738.47,-84.97 738.47,-90.97 732.47,-96.97 726.47,-96.97"/>
<text xml:space="preserve" text-anchor="middle" x="679.51" y="-75.49" font-family="Helvetica,Arial,sans-serif" font-size="12.00" fill="#111111">Decode</text>
<text xml:space="preserve" text-anchor="middle" x="679.51" y="-62.74" font-family="Helvetica,Arial,sans-serif" font-size="12.00" fill="#111111">imperfect TV</text>
<text xml:space="preserve" text-anchor="middle" x="679.51" y="-49.99" font-family="Helvetica,Arial,sans-serif" font-size="12.00" fill="#111111">receiver → RGB</text>
</g>
<!-- damage&#45;&gt;decode -->
<g id="edge3" class="edge">
<title>damage&#45;&gt;decode</title>
<path fill="none" stroke="#555555" d="M583.76,-67.76C592.05,-67.76 600.57,-67.76 608.95,-67.76"/>
<polygon fill="#555555" stroke="#555555" points="608.72,-71.26 618.72,-67.76 608.72,-64.26 608.72,-71.26"/>
</g>
<!-- screen -->
<g id="node5" class="node">
<title>screen</title>
<path fill="#dfe3ea" stroke="#333333" stroke-opacity="0.133333" d="M873.15,-90.59C873.15,-90.59 787.47,-90.59 787.47,-90.59 781.47,-90.59 775.47,-84.59 775.47,-78.59 775.47,-78.59 775.47,-56.93 775.47,-56.93 775.47,-50.93 781.47,-44.93 787.47,-44.93 787.47,-44.93 873.15,-44.93 873.15,-44.93 879.15,-44.93 885.15,-50.93 885.15,-56.93 885.15,-56.93 885.15,-78.59 885.15,-78.59 885.15,-84.59 879.15,-90.59 873.15,-90.59"/>
<text xml:space="preserve" text-anchor="middle" x="830.31" y="-69.11" font-family="Helvetica,Arial,sans-serif" font-size="12.00" fill="#111111">Screen</text>
<text xml:space="preserve" text-anchor="middle" x="830.31" y="-56.36" font-family="Helvetica,Arial,sans-serif" font-size="12.00" fill="#111111">scanline beam</text>
</g>
<!-- decode&#45;&gt;screen -->
<g id="edge4" class="edge">
<title>decode&#45;&gt;screen</title>
<path fill="none" stroke="#555555" d="M738.89,-67.76C746.97,-67.76 755.31,-67.76 763.52,-67.76"/>
<polygon fill="#555555" stroke="#555555" points="763.46,-71.26 773.46,-67.76 763.46,-64.26 763.46,-71.26"/>
</g>
<!-- screen&#45;&gt;src -->
<g id="edge6" class="edge">
<title>screen&#45;&gt;src</title>
<path fill="none" stroke="#3aa049" stroke-dasharray="5,2" d="M780.16,-44.45C766.87,-38.92 752.33,-33.53 738.47,-29.76 671.42,-11.53 652.87,-13.44 583.54,-8.76 405.87,3.22 357.73,6.7 183.43,-29.76 170.02,-32.57 155.99,-36.58 142.64,-40.95"/>
<polygon fill="#3aa049" stroke="#3aa049" points="141.88,-37.51 133.53,-44.04 144.12,-44.15 141.88,-37.51"/>
<text xml:space="preserve" text-anchor="middle" x="518.58" y="-20.26" font-family="Helvetica,Arial,sans-serif" font-size="10.00" fill="#3aa049"> &#160;image feedback</text>
<text xml:space="preserve" text-anchor="middle" x="518.58" y="-9.76" font-family="Helvetica,Arial,sans-serif" font-size="10.00" fill="#3aa049"> &#160;(camera&#45;at&#45;monitor)</text>
</g>
</g>
</svg>
